
nColumns=19
nRows=49
DataType=double
version=3
OpenSimVersion=4.4-2022-10-11-798caa840
endheader
time	ground_force_calcn_r_vx	ground_force_calcn_r_vy	ground_force_calcn_r_vz	ground_force_calcn_r_px	ground_force_calcn_r_py	ground_force_calcn_r_pz	ground_force_calcn_r_mx	ground_force_calcn_r_my	ground_force_calcn_r_mz	ground_force_calcn_l_vx	ground_force_calcn_l_vy	ground_force_calcn_l_vz	ground_force_calcn_l_px	ground_force_calcn_l_py	ground_force_calcn_l_pz	ground_force_calcn_l_mx	ground_force_calcn_l_my	ground_force_calcn_l_mz
0	-46.1429	348.718	12.4988	0.144672	0	-0.227767	0.0353486	-0.267141	-0.009574920000000001	0	0	0	0	0	0	0	0	0
0.01	-48.7879	366.535	8.71327	0.147685	0	-0.226838	0.061616	-0.46291	-0.0110043	0	0	0	0	0	0	0	0	0
0.02	-51.5691	386.643	4.88628	0.151442	0	-0.225798	0.0827184	-0.620187	-0.007837729999999999	0	0	0	0	0	0	0	0	0
0.03	-54.3564	408.635	1.21919	0.155339	0	-0.224828	0.0966579	-0.726646	-0.002168	0	0	0	0	0	0	0	0	0
0.04	-57.0005	431.983	-2.10021	0.159295	0	-0.22395	0.102697	-0.778301	0.00378394	0	0	0	0	0	0	0	0	0
0.05	-59.3424	456.082	-4.93277	0.163239	0	-0.223173	0.101536	-0.780363	0.008440029999999999	0	0	0	0	0	0	0	0	0
0.06	-61.2235	480.307	-7.20715	0.167123	0	-0.222492	0.0950217	-0.745459	0.0111858	0	0	0	0	0	0	0	0	0
0.07000000000000001	-62.5163	504.072	-8.91611	0.170923	0	-0.22189	0.0855325	-0.689653	0.0121987	0	0	0	0	0	0	0	0	0
0.08	-63.1461	526.885	-10.0984	0.174636	0	-0.221348	0.0753154	-0.628424	0.0120445	0	0	0	0	0	0	0	0	0
0.09	-63.1002	548.372	-10.8282	0.178285	0	-0.220846	0.06616470000000001	-0.575003	0.011354	0	0	0	0	0	0	0	0	0
0.1	-62.424	568.285	-11.2098	0.181898	0	-0.220365	0.0593269	-0.54009	0.0106536	0	0	0	0	0	0	0	0	0
0.11	-61.2092	586.491	-11.3647	0.185518	0	-0.219886	0.0554601	-0.531405	0.0102973	0	0	0	0	0	0	0	0	0
0.12	-59.5714	602.933	-11.4111	0.189179	0	-0.219397	0.0546806	-0.553432	0.0104743	0	0	0	0	0	0	0	0	0
0.13	-57.6259	617.582	-11.4449	0.192911	0	-0.218892	0.0567264	-0.607942	0.0112662	0	0	0	0	0	0	0	0	0
0.14	-55.4689	630.401	-11.5278	0.196732	0	-0.218372	0.0611459	-0.69492	0.0127076	0	0	0	0	0	0	0	0	0
0.15	-53.1722	641.332	-11.6822	0.20065	0	-0.217846	0.0674342	-0.813351	0.0148156	0	0	0	0	0	0	0	0	0
0.16	-50.7876	650.311	-11.8927	0.204669	0	-0.217326	0.0751145	-0.961804	0.0175891	0	0	0	0	0	0	0	0	0
0.17	-48.3514	657.289	-12.1195	0.20879	0	-0.21683	0.083771	-1.13878	0.0209977	0	0	0	0	0	0	0	0	0
0.18	-45.8938	662.25	-12.3156	0.21301	0	-0.216377	0.0930343	-1.34249	0.0249658	0	0	0	0	0	0	0	0	0
0.19	-43.4493	665.22	-12.4409	0.217327	0	-0.215984	0.102564	-1.57028	0.0293674	0	0	0	0	0	0	0	0	0
0.2	-41.065	666.275	-12.4721	0.22174	0	-0.215664	0.112061	-1.81818	0.0340349	0	0	0	0	0	0	0	0	0
0.21	-38.8006	665.543	-12.4047	0.226246	0	-0.215425	0.121293	-2.08052	0.0387778	0	0	0	0	0	0	0	0	0
0.22	-36.7199	663.196	-12.2508	0.230838	0	-0.215272	0.130118	-2.35006	0.0434111	0	0	0	0	0	0	0	0	0
0.23	-34.88	659.437	-12.0344	0.235504	0	-0.215202	0.138496	-2.6184	0.0477844	0	0	0	0	0	0	0	0	0
0.24	-33.3241	654.491	-11.7836	0.240228	0	-0.215207	0.146476	-2.87681	0.0517946	0	0	0	0	0	0	0	0	0
0.25	-32.0764	648.591	-11.5226	0.244992	0	-0.215274	0.15417	-3.11734	0.0553814	0	0	0	0	0	0	0	0	0
0.26	-31.1382	641.973	-11.2688	0.249773	0	-0.215393	0.161701	-3.33376	0.058519	0	0	0	0	0	0	0	0	0
0.27	-30.4857	634.861	-11.0331	0.254544	0	-0.21555	0.169129	-3.52209	0.0612097	0	0	0	0	0	0	0	0	0
0.28	-30.0707	627.4690000000001	-10.8217	0.259274	0	-0.215729	0.176395	-3.68075	0.0634806	0	0	0	0	0	0	0	0	0
0.29	-29.8237	619.987	-10.639	0.263926	0	-0.215921	0.183294	-3.8104	0.0653864	0	0	0	0	0	0	0	0	0
0.3	-29.658	612.587	-10.4905	0.268459	0	-0.216114	0.189477	-3.91366	0.0670212	0	0	0	0	0	0	0	0	0
0.31	-29.4754	605.413	-10.3853	0.272825	0	-0.216303	0.19448	-3.99455	0.068523	0	0	0	0	0	0	0	0	0
0.32	-29.1746	598.597	-10.3355	0.276976	0	-0.216479	0.197776	-4.05791	0.0700648	0	0	0	0	0	0	0	0	0
0.33	-28.6606	592.264	-10.354	0.280864	0	-0.216639	0.198841	-4.10899	0.0718338	0	0	0	0	0	0	0	0	0
0.34	-27.8529	586.543	-10.4512	0.284445	0	-0.21678	0.197218	-4.15313	0.0740019	0	0	0	0	0	0	0	0	0
0.35	-26.6899	581.571	-10.6332	0.287683	0	-0.2169	0.192537	-4.19538	0.07670689999999999	0	0	0	0	0	0	0	0	0
0.36	-25.1303	577.485	-10.9017	0.290557	0	-0.216997	0.184522	-4.24027	0.08004749999999999	0	0	0	0	0	0	0	0	0
0.37	-23.1527	574.421	-11.2566	0.293057	0	-0.217069	0.172961	-4.29117	0.08409170000000001	0	0	0	0	0	0	0	0	0
0.38	-20.753	572.498	-11.6985	0.295188	0	-0.217113	0.157683	-4.34989	0.0888863	0	0	0	0	0	0	0	0	0
0.39	-17.9408	571.8200000000001	-12.2291	0.296969	0	-0.217129	0.138568	-4.41651	0.09445290000000001	0	0	0	0	0	0	0	0	0
0.4	-14.7344	572.468	-12.8483	0.298433	0	-0.217112	0.11556	-4.48981	0.100768	0	0	0	0	0	0	0	0	0
0.41	-11.1548	574.499	-13.5519	0.29962	0	-0.21706	0.0886885	-4.56767	0.107747	0	0	0	0	0	0	0	0	0
0.42	-7.22253	577.936	-14.3306	0.300572	0	-0.216972	0.0580786	-4.64736	0.115237	0	0	0	0	0	0	0	0	0
0.43	-2.95792	582.766	-15.1693	0.301336	0	-0.216848	0.0239844	-4.72539	0.123001	0	0	0	0	0	0	0	0	0
0.44	1.61782	588.923	-16.0486	0.301955	0	-0.216688	-0.0131789	-4.79743	0.130733	0	0	0	0	0	0	0	0	0
0.45	6.48272	596.283	-16.9493	0.302472	0	-0.216489	-0.052818	-4.85822	0.138094	0	0	0	0	0	0	0	0	0
0.46	11.6164	604.654	-17.8546	0.302924	0	-0.216252	-0.0941683	-4.90162	0.144738	0	0	0	0	0	0	0	0	0
0.47	17.0019	613.779	-18.7518	0.303344	0	-0.215976	-0.13631	-4.92087	0.150339	0	0	0	0	0	0	0	0	0
0.48	22.6247	623.341	-19.6306	0.303758	0	-0.215659	-0.17818	-4.9091	0.1546	0	0	0	0	0	0	0	0	0
